<?xml version="1.0" encoding="utf-8"?>
<!-- Generator: Adobe Illustrator 21.0.1, SVG Export Plug-In . SVG Version: 6.00 Build 0)  -->
<svg version="1.1" id="Layer_1" xmlns="http://www.w3.org/2000/svg" xmlns:xlink="http://www.w3.org/1999/xlink" x="0px" y="0px"
	 viewBox="0 0 120 120" style="enable-background:new 0 0 120 120;" xml:space="preserve">
<style type="text/css">
	.st0{fill:#010A05;stroke:#00A651;stroke-width:2;stroke-miterlimit:10;}
	.st1{enable-background:new    ;}
	.st2{fill:#00A651;}
	.st3{fill:none;stroke:#00A651;stroke-width:2;stroke-miterlimit:10;}
</style>
<path class="st0" d="M104.7,116.6H14.8c-6.6,0-12-5.4-12-12V14.7c0-6.6,5.4-12,12-12h89.9c6.6,0,12,5.4,12,12v89.9
	C116.7,111.2,111.3,116.6,104.7,116.6z"/>
<g class="st1">
	<path class="st2" d="M29.8,97.5h3.4c1.4,0,2.5,1,2.5,2.3c0,0.8-0.3,1.3-0.9,1.7v0c0.9,0.6,1.2,1.2,1.2,2.1c0,1.2-0.9,2.2-2.5,2.2
		h-3.7V97.5z M32.8,100.8c0.5,0,0.8-0.3,0.8-0.8c0-0.4-0.3-0.8-0.8-0.8h-1v1.5H32.8z M33,104c0.5,0,0.8-0.3,0.8-0.7
		c0-0.4-0.3-0.7-0.8-0.7h-1.2v1.5H33z"/>
	<path class="st2" d="M40.1,97.2h0.4l4.1,8.6h-2.2l-0.4-0.9h-3.3l-0.4,0.9h-2.2L40.1,97.2z M41.3,103.5l-1-2.1h0l-1,2.1H41.3z"/>
	<path class="st2" d="M45.5,97.5H49c1.8,0,3,1.1,3,2.7c0,1.5-0.7,2.3-2,2.6l2.2,3.1h-2.6l-2.1-3.1v3.1h-2V97.5z M49.1,101.1
		c0.5,0,0.8-0.5,0.8-1c0-0.5-0.4-0.9-0.8-0.9h-1.6v1.9H49.1z"/>
	<path class="st2" d="M57.5,97.2c1.6,0,2.7,0.6,3.6,1.5l-1.4,1.3c-0.6-0.6-1.3-0.9-2.2-0.9c-1.5,0-2.4,1.1-2.4,2.5s1,2.5,2.4,2.5
		c0.8,0,1.6-0.4,2.2-0.9l1.4,1.3c-0.8,0.9-2,1.5-3.5,1.5c-2.6,0-4.5-2-4.5-4.4C53,99.1,54.9,97.2,57.5,97.2z"/>
	<path class="st2" d="M62.1,97.5h2v3.3h3.3v-3.3h2v8.3h-2v-3.3h-3.3v3.3h-2V97.5z"/>
</g>
<g class="st1">
	<path class="st2" d="M68.4,97.5h5.5v1.8h-3.5v1.5h3.2v1.8h-3.2v1.5H74v1.8h-5.7V97.5z"/>
	<path class="st2" d="M75,97.5h5.4v1.8h-3.3v1.8h3.1v1.8h-3.1v3h-2V97.5z"/>
</g>
<g class="st1">
	<path class="st2" d="M81.8,104.1c0.6,0,1,0.4,1,1c0,0.6-0.4,1-1,1c-0.6,0-1-0.4-1-1C80.8,104.5,81.2,104.1,81.8,104.1z"/>
</g>
<g class="st1">
	<path class="st2" d="M86.6,100.6c1,0,1.6,0.4,2.2,0.9l-0.8,0.8c-0.4-0.3-0.8-0.6-1.3-0.6c-0.9,0-1.5,0.7-1.5,1.5s0.6,1.5,1.5,1.5
		c0.5,0,1-0.2,1.3-0.6l0.8,0.8c-0.5,0.5-1.2,0.9-2.1,0.9c-1.6,0-2.7-1.2-2.7-2.7S85,100.6,86.6,100.6z"/>
	<path class="st2" d="M91.9,100.6c1.6,0,2.7,1.2,2.7,2.7s-1.1,2.7-2.7,2.7c-1.6,0-2.7-1.2-2.7-2.7S90.3,100.6,91.9,100.6z
		 M91.9,104.8c0.9,0,1.5-0.7,1.5-1.5s-0.6-1.5-1.5-1.5c-0.9,0-1.5,0.7-1.5,1.5S91,104.8,91.9,104.8z"/>
</g>
<path class="st3" d="M48,69.8v-7.4h49c1.2,0,2-3.5,2.3-7.4H48v-7.4h51.3c-0.3-1.4-1-4.9-2.3-7.4H48V33h46.6h3.6
	C90.1,18.4,72.7,9.2,53.5,12.8c-15.9,2.9-28.8,15-32.2,30.1c-5.6,25.5,14.6,48,40.3,48c15.8,0,29.6-8.5,36.5-21h-3.6L48,69.8
	L48,69.8z"/>
</svg>
